# xmcd
#
# Track frame offsets:
#	150
#	19919
#	41718
#	60519
#	78879
#	96809
#	116910
#	132416
#	148392
#	174472
#	194469
#
# Disc length: 2781 seconds
#
# Revision: 0
# Processed by: cddbd v1.5.2PL0 Copyright (c) Steve Scherf et al.
# Submitted via: EasyCDDAExtractor 10.0.3.1
#
DISCID=9e0adb0b
DTITLE=MAREK KOŚCIKIEWICZ - TAJEMNICE
DYEAR=1996
DGENRE=Pop
TTITLE0=Tylko Błękit
TTITLE1=Więcej
TTITLE2=Gniew I Żal
TTITLE3=Burza
TTITLE4=Pytanie Za Pytaniem
TTITLE5=Ułamki
TTITLE6=Energia
TTITLE7=Pomiędzy Niebem A Ziemią
TTITLE8=Samotność (Przypadek Ostatniej Nocy)
TTITLE9=Tajemnice
TTITLE10=Z Twoich Ust
EXTD=
EXTT0=
EXTT1=
EXTT2=
EXTT3=
EXTT4=
EXTT5=
EXTT6=
EXTT7=
EXTT8=
EXTT9=
EXTT10=
PLAYORDER=
